<svg xmlns="http://www.w3.org/2000/svg" xmlns:xlink="http://www.w3.org/1999/xlink" id="Layer_1" viewBox="0 0 710.47 215.07"><defs><style>      .cls-1 {        fill: none;      }      .cls-2 {        fill: url(#linear-gradient-5);      }      .cls-3 {        fill: url(#linear-gradient-4);      }      .cls-4 {        fill: url(#linear-gradient-3);      }      .cls-5 {        fill: url(#linear-gradient-2);      }      .cls-6 {        fill: url(#linear-gradient);      }      .cls-7 {        fill: #ed1c24;      }      .cls-8 {        fill: #fff;      }    </style><linearGradient id="linear-gradient" x1="38.28" y1="506.89" x2="163.97" y2="506.89" gradientTransform="translate(0 -376.01)" gradientUnits="userSpaceOnUse"><stop offset="0" stop-color="#ed1c24"></stop><stop offset="1" stop-color="#631719"></stop></linearGradient><linearGradient id="linear-gradient-2" x1="89.41" y1="444.71" x2="133.65" y2="444.71" gradientTransform="translate(0 -376.01)" gradientUnits="userSpaceOnUse"><stop offset="0" stop-color="#ed1c24"></stop><stop offset="1" stop-color="#631719"></stop></linearGradient><linearGradient id="linear-gradient-3" x1="116.41" y1="430.09" x2="160.39" y2="430.09" gradientTransform="translate(0 -376.01)" gradientUnits="userSpaceOnUse"><stop offset="0" stop-color="#ed1c24"></stop><stop offset="1" stop-color="#631719"></stop></linearGradient><linearGradient id="linear-gradient-4" x1="133" y1="389.13" x2="151.43" y2="389.13" gradientTransform="translate(0 -376.01)" gradientUnits="userSpaceOnUse"><stop offset="0" stop-color="#ed1c24"></stop><stop offset="1" stop-color="#631719"></stop></linearGradient><linearGradient id="linear-gradient-5" x1="103.27" y1="408.73" x2="121.19" y2="408.73" gradientTransform="translate(0 -376.01)" gradientUnits="userSpaceOnUse"><stop offset="0" stop-color="#ed1c24"></stop><stop offset="1" stop-color="#631719"></stop></linearGradient></defs><g><line class="cls-1" x1="63.23" y1="151.53" x2="28.8" y2="215.07"></line><g><path class="cls-1" d="M144.33,122.54l-65.47,65.24c12.41,2.57,25.01,1.12,36.19-3.69,14.3-6.12,26.25-17.72,32.5-33.31,6.21-15.59,5.55-32.22-.6-46.52-1.63-3.81-3.68-7.44-6.06-10.85l-9.23,11.72,12.66,17.42h0Z"></path><path class="cls-8" d="M35.22,152.19c-4.58-10.66-6.06-22.6-4-34.43-5.21.62-10.65-.2-15.7-2.71-2.48-1.23-4.69-2.8-6.63-4.6-3.79,17.45-1.82,35.2,4.93,50.93,5.43,12.67,13.98,24,25.09,32.78l11.36-20.95c-6.52-5.92-11.66-13.08-15.05-21.02Z"></path><path class="cls-8" d="M57.93,50.96c-2.79,1.19-5.52,2.54-8.19,4.05,7.47,4.89,13.33,10.85,17.85,17.13,5.36-2.24,11.04-3.71,16.86-4.36l11.21-23.52c-13.06-.71-25.96,1.64-37.73,6.7Z"></path><path class="cls-8" d="M168.35,95.06c-3.17-7.39-7.39-14.33-12.57-20.57l-14.89,18.9c2.38,3.41,4.43,7.04,6.06,10.85,6.15,14.3,6.81,30.93.6,46.52-6.24,15.59-18.19,27.2-32.5,33.31-11.18,4.81-23.78,6.26-36.19,3.69l-18.69,18.63c21.47,8.5,44.37,7.54,64.07-.92,19.76-8.47,36.29-24.5,44.92-46.05s7.69-44.58-.82-64.37h.01Z"></path><path class="cls-8" d="M31.86,114.39c-.26,1.12-.45,2.25-.64,3.37,9.05-1.08,17.4-6.55,21.75-15.32,5.33-10.7,3.14-23.15-4.52-31.43l-9.5,22.74-6.87.88-6.87.88-4.2-5.49-4.2-5.52,9.35-22.4c-9.6.63-18.63,6.21-23.24,15.47-5.64,11.35-2.84,24.67,5.98,32.89.91-4.19,2.15-8.37,3.74-12.5l19.23,16.44h-.01Z"></path><path class="cls-8" d="M31.22,117.76c.2-1.12.38-2.25.64-3.37l-19.23-16.44c-1.59,4.13-2.83,8.3-3.74,12.5,1.93,1.8,4.14,3.36,6.63,4.6,5.05,2.51,10.49,3.33,15.7,2.71Z"></path></g><path class="cls-6" d="M104.62,56.24l-40.65,81.62,20.17,3.23-32.18,55.68,68.13-66-21.8-4.64,58.69-74.85c3.58-4.55,9.54.19,5.8,4.96l-50.97,65,24.47,5.18-86.98,83c-6.78,6.56-14.43,1.16-9.41-7.28l31.93-55.3-19.26-3.07,45.26-90.97c2.54-5.05,9.35-1.69,6.81,3.45h0Z"></path><path class="cls-5" d="M133.01,37.13l-36.32,66.82c-2.57,4.71-9.22,1.04-6.74-3.51l36.39-66.91c2.54-4.71,9.41-1.41,6.68,3.61h0Z"></path><path class="cls-4" d="M159.42,29.45l-35.95,54.02c-3.07,4.55-9.38.31-6.18-4.49l35.98-54.02c3.36-5.02,9.5-.53,6.15,4.49h0Z"></path><path class="cls-3" d="M150.79,5.86l-10.51,18.19c-2.57,4.7-9.22,1.07-6.74-3.51l10.57-18.29c2.57-4.67,9.41-1.38,6.68,3.61h0Z"></path><path class="cls-2" d="M120.62,24.33l-9.98,20.05c-2.41,4.89-9.88,2.79-6.52-3.92l9.72-19.57c2.51-5.05,9.35-1.66,6.78,3.45h0Z"></path></g><g id="Layer_2"><g><path class="cls-8" d="M224.68,142.43c1.83,0,3.33-.15,4.52-.46,1.19-.3,2.14-.72,2.86-1.24.72-.53,1.22-1.15,1.49-1.87.28-.72.42-1.52.42-2.41,0-1.88-.89-3.45-2.66-4.69s-4.81-2.59-9.13-4.02c-1.88-.66-3.76-1.42-5.64-2.28s-3.57-1.94-5.06-3.24c-1.49-1.3-2.71-2.88-3.65-4.73-.94-1.85-1.41-4.11-1.41-6.76s.5-5.05,1.49-7.18c1-2.13,2.41-3.94,4.23-5.44,1.83-1.49,4.04-2.64,6.64-3.44s5.53-1.2,8.8-1.2c3.87,0,7.22.42,10.04,1.25,2.82.83,5.15,1.74,6.97,2.74l-3.73,10.21c-1.61-.83-3.39-1.56-5.35-2.2s-4.33-.95-7.1-.95c-3.1,0-5.33.43-6.68,1.29-1.36.86-2.03,2.17-2.03,3.94,0,1.05.25,1.94.75,2.66s1.2,1.37,2.12,1.95,1.96,1.11,3.15,1.58c1.19.47,2.5.95,3.94,1.45,2.99,1.11,5.59,2.2,7.8,3.28s4.05,2.34,5.52,3.78,2.56,3.13,3.28,5.06c.72,1.94,1.08,4.29,1.08,7.06,0,5.37-1.88,9.53-5.64,12.49s-9.43,4.44-17.01,4.44c-2.55,0-4.84-.15-6.89-.46-2.05-.3-3.86-.68-5.44-1.12s-2.93-.91-4.07-1.41c-1.13-.5-2.09-.97-2.86-1.41l3.65-10.29c1.71.94,3.83,1.79,6.35,2.53,2.52.75,5.6,1.12,9.25,1.12v-.03h0Z"></path><path class="cls-8" d="M256.47,110.14c2.1-.61,4.81-1.17,8.13-1.7,3.32-.52,6.81-.79,10.46-.79s6.79.48,9.25,1.45c2.46.97,4.41,2.34,5.85,4.11,1.44,1.77,2.46,3.87,3.07,6.31.61,2.44.91,5.15.91,8.13v24.65h-12.37v-23.16c0-3.98-.53-6.81-1.58-8.47s-3.02-2.49-5.89-2.49c-.89,0-1.83.04-2.82.12s-1.88.18-2.66.29v33.7h-12.37v-42.16h.02Z"></path><path class="cls-8" d="M303.28,130.81c0-3.87.59-7.26,1.78-10.17,1.19-2.9,2.75-5.32,4.69-7.26s4.16-3.4,6.68-4.4,5.1-1.49,7.76-1.49c6.2,0,11.09,1.9,14.69,5.69s5.4,9.37,5.4,16.72c0,.72-.03,1.51-.08,2.37-.06.86-.11,1.62-.17,2.28h-28.05c.28,2.55,1.47,4.56,3.57,6.06,2.1,1.49,4.92,2.24,8.47,2.24,2.27,0,4.49-.21,6.68-.62,2.19-.41,3.97-.93,5.35-1.54l1.66,10.04c-.66.33-1.55.66-2.66,1-1.11.33-2.34.62-3.69.87-1.36.25-2.81.46-4.36.62-1.55.17-3.1.25-4.65.25-3.93,0-7.35-.58-10.25-1.74-2.91-1.16-5.31-2.75-7.22-4.77s-3.32-4.41-4.23-7.18c-.91-2.77-1.37-5.75-1.37-8.96h0ZM332.33,126.08c-.06-1.05-.24-2.08-.54-3.07-.3-1-.78-1.88-1.41-2.66-.64-.77-1.44-1.41-2.41-1.91s-2.17-.75-3.61-.75-2.57.24-3.57.71-1.83,1.09-2.49,1.87c-.66.78-1.18,1.67-1.54,2.7-.36,1.02-.62,2.06-.79,3.11h16.36Z"></path><path class="cls-8" d="M371.26,153.13c-3.6-.06-6.52-.44-8.76-1.16-2.24-.72-4.01-1.73-5.31-3.03s-2.19-2.88-2.66-4.73c-.47-1.85-.71-3.94-.71-6.27v-48.06l12.37-1.99v47.56c0,1.11.08,2.1.25,2.99s.48,1.63.96,2.24c.47.61,1.15,1.11,2.03,1.49.88.39,2.08.64,3.57.75l-1.74,10.21h0Z"></path><path class="cls-8" d="M397.49,153.13c-3.6-.06-6.52-.44-8.76-1.16-2.24-.72-4.01-1.73-5.31-3.03s-2.19-2.88-2.66-4.73c-.47-1.85-.71-3.94-.71-6.27v-48.06l12.37-1.99v47.56c0,1.11.08,2.1.25,2.99s.48,1.63.96,2.24c.47.61,1.15,1.11,2.03,1.49.88.39,2.08.64,3.57.75l-1.74,10.21h0Z"></path><path class="cls-8" d="M442.72,142.43c1.83,0,3.33-.15,4.52-.46,1.19-.3,2.14-.72,2.86-1.24.72-.53,1.22-1.15,1.49-1.87.28-.72.42-1.52.42-2.41,0-1.88-.89-3.45-2.66-4.69s-4.81-2.59-9.13-4.02c-1.88-.66-3.76-1.42-5.64-2.28s-3.57-1.94-5.06-3.24c-1.49-1.3-2.71-2.88-3.65-4.73-.94-1.85-1.41-4.11-1.41-6.76s.5-5.05,1.49-7.18c1-2.13,2.41-3.94,4.23-5.44,1.83-1.49,4.04-2.64,6.64-3.44s5.53-1.2,8.8-1.2c3.87,0,7.22.42,10.04,1.25s5.15,1.74,6.97,2.74l-3.74,10.21c-1.61-.83-3.39-1.56-5.35-2.2s-4.33-.95-7.1-.95c-3.1,0-5.33.43-6.68,1.29-1.36.86-2.03,2.17-2.03,3.94,0,1.05.25,1.94.75,2.66s1.2,1.37,2.12,1.95c.91.58,1.96,1.11,3.15,1.58s2.5.95,3.94,1.45c2.99,1.11,5.59,2.2,7.8,3.28s4.05,2.34,5.52,3.78c1.46,1.44,2.56,3.13,3.28,5.06.72,1.94,1.08,4.29,1.08,7.06,0,5.37-1.88,9.53-5.64,12.49s-9.43,4.44-17.01,4.44c-2.55,0-4.84-.15-6.89-.46-2.05-.3-3.86-.68-5.44-1.12-1.58-.44-2.93-.91-4.07-1.41-1.13-.5-2.09-.97-2.86-1.41l3.65-10.29c1.71.94,3.83,1.79,6.35,2.53,2.52.75,5.6,1.12,9.25,1.12v-.03h.01Z"></path><path class="cls-8" d="M472.43,130.81c0-3.87.59-7.26,1.78-10.17,1.19-2.9,2.75-5.32,4.69-7.26s4.16-3.4,6.68-4.4,5.1-1.49,7.76-1.49c6.2,0,11.09,1.9,14.69,5.69s5.4,9.37,5.4,16.72c0,.72-.03,1.51-.08,2.37-.06.86-.11,1.62-.17,2.28h-28.05c.28,2.55,1.47,4.56,3.57,6.06,2.1,1.49,4.92,2.24,8.47,2.24,2.27,0,4.5-.21,6.68-.62,2.19-.41,3.97-.93,5.35-1.54l1.66,10.04c-.66.33-1.55.66-2.66,1-1.11.33-2.34.62-3.69.87-1.36.25-2.81.46-4.36.62-1.55.17-3.1.25-4.65.25-3.93,0-7.34-.58-10.25-1.74s-5.31-2.75-7.22-4.77-3.32-4.41-4.23-7.18c-.91-2.77-1.37-5.75-1.37-8.96h0ZM501.48,126.08c-.06-1.05-.24-2.08-.54-3.07-.3-1-.78-1.88-1.41-2.66-.64-.77-1.44-1.41-2.41-1.91s-2.17-.75-3.61-.75-2.57.24-3.57.71-1.83,1.09-2.49,1.87c-.66.78-1.18,1.67-1.54,2.7-.36,1.02-.62,2.06-.79,3.11h16.36Z"></path><path class="cls-8" d="M549.29,119.6c-1.11-.28-2.41-.57-3.9-.87-1.49-.3-3.1-.46-4.81-.46-.78,0-1.7.07-2.78.21s-1.9.29-2.45.46v33.37h-12.37v-41.33c2.21-.77,4.83-1.51,7.84-2.2,3.02-.69,6.38-1.04,10.08-1.04.66,0,1.46.04,2.41.12.94.08,1.88.19,2.82.33s1.88.3,2.82.5c.94.19,1.74.43,2.41.71l-2.08,10.21h.01Z"></path><path class="cls-8" d="M572.51,152.3c-2.83-5.53-5.71-12.01-8.62-19.42-2.92-7.41-5.68-15.49-8.29-24.24h13.11c.55,2.16,1.21,4.5,1.96,7.01.75,2.52,1.53,5.06,2.33,7.64.8,2.57,1.61,5.08,2.42,7.51.81,2.44,1.6,4.65,2.38,6.64.72-1.99,1.5-4.2,2.33-6.64.83-2.43,1.65-4.94,2.46-7.51.8-2.57,1.58-5.12,2.33-7.64s1.4-4.86,1.96-7.01h12.79c-2.61,8.74-5.37,16.82-8.28,24.24-2.91,7.41-5.79,13.89-8.62,19.42h-10.26Z"></path><path class="cls-8" d="M619.76,96.03c0,2.27-.73,4.05-2.2,5.35-1.47,1.3-3.2,1.95-5.19,1.95s-3.72-.65-5.19-1.95c-1.47-1.3-2.2-3.08-2.2-5.35s.73-4.05,2.2-5.35c1.46-1.3,3.2-1.95,5.19-1.95s3.72.65,5.19,1.95c1.46,1.3,2.2,3.09,2.2,5.35ZM618.59,152.3h-12.37v-43.66h12.37v43.66Z"></path><path class="cls-8" d="M628.14,130.48c0-3.15.51-6.13,1.54-8.92,1.02-2.79,2.5-5.23,4.44-7.3s4.29-3.72,7.05-4.94c2.77-1.22,5.92-1.83,9.46-1.83,2.32,0,4.45.21,6.39.62s3.82,1.01,5.64,1.78l-2.57,9.88c-1.16-.44-2.44-.83-3.82-1.16s-2.93-.5-4.65-.5c-3.65,0-6.38,1.13-8.17,3.4-1.8,2.27-2.7,5.26-2.7,8.96,0,3.93.84,6.97,2.53,9.13s4.63,3.24,8.84,3.24c1.49,0,3.1-.14,4.81-.42s3.29-.72,4.73-1.33l1.74,10.13c-1.44.61-3.24,1.13-5.39,1.58-2.16.44-4.54.66-7.14.66-3.98,0-7.42-.6-10.29-1.78-2.88-1.19-5.24-2.81-7.1-4.86-1.85-2.05-3.21-4.47-4.07-7.26s-1.29-5.82-1.29-9.09h.02,0Z"></path><path class="cls-8" d="M667.56,130.81c0-3.87.59-7.26,1.78-10.17,1.19-2.9,2.75-5.32,4.69-7.26s4.16-3.4,6.68-4.4,5.1-1.49,7.76-1.49c6.2,0,11.09,1.9,14.69,5.69s5.4,9.37,5.4,16.72c0,.72-.03,1.51-.08,2.37-.06.86-.11,1.62-.17,2.28h-28.05c.28,2.55,1.47,4.56,3.57,6.06,2.1,1.49,4.92,2.24,8.47,2.24,2.27,0,4.5-.21,6.68-.62,2.19-.41,3.97-.93,5.35-1.54l1.66,10.04c-.66.33-1.55.66-2.66,1-1.11.33-2.34.62-3.69.87-1.36.25-2.81.46-4.36.62-1.55.17-3.1.25-4.65.25-3.93,0-7.34-.58-10.25-1.74s-5.31-2.75-7.22-4.77-3.32-4.41-4.23-7.18c-.91-2.77-1.37-5.75-1.37-8.96h0ZM696.61,126.08c-.06-1.05-.24-2.08-.54-3.07-.3-1-.78-1.88-1.41-2.66-.64-.77-1.44-1.41-2.41-1.91s-2.17-.75-3.61-.75-2.57.24-3.57.71-1.83,1.09-2.49,1.87c-.66.78-1.18,1.67-1.54,2.7-.36,1.02-.62,2.06-.79,3.11h16.36,0Z"></path></g><g><path class="cls-7" d="M210,184.19c-1.01,0-1.88-.17-2.62-.51-.74-.34-1.35-.8-1.82-1.38s-.83-1.28-1.06-2.08-.34-1.67-.34-2.6v-10.47h2.16v10.2c0,1.67.34,2.88,1.02,3.63s1.57,1.13,2.67,1.13c.55,0,1.05-.09,1.5-.28.45-.18.84-.47,1.17-.85.33-.39.58-.88.76-1.48.18-.6.27-1.32.27-2.15v-10.2h2.16v10.47c0,.93-.12,1.8-.34,2.6-.23.8-.59,1.5-1.07,2.08-.48.59-1.09,1.05-1.82,1.38s-1.6.51-2.61.51h-.03Z"></path><path class="cls-7" d="M227.98,172.52c-.62,2.15-1.25,4.14-1.89,5.97s-1.27,3.61-1.91,5.34h-2.16c-.79-2.45-1.48-5.04-2.08-7.77s-1.16-5.69-1.68-8.9h2.27c.21,1.25.42,2.5.64,3.75s.45,2.47.69,3.65.47,2.31.71,3.38.48,2.07.73,2.98c.59-1.68,1.22-3.53,1.89-5.55.67-2.01,1.29-4.09,1.87-6.24h1.87c.58,2.15,1.21,4.23,1.89,6.24.68,2.01,1.32,3.86,1.91,5.55.24-.9.47-1.88.71-2.96.24-1.07.47-2.2.7-3.38.23-1.18.46-2.4.68-3.66.22-1.26.44-2.51.65-3.77h2.2c-.53,3.21-1.1,6.18-1.7,8.9s-1.29,5.32-2.06,7.77h-2.16c-.65-1.73-1.29-3.51-1.91-5.34-.62-1.83-1.24-3.82-1.87-5.97h.01Z"></path><path class="cls-7" d="M249.43,166.99c2.16,0,3.83.45,4.99,1.34s1.75,2.22,1.75,3.98c0,.96-.16,1.79-.48,2.47-.32.68-.78,1.24-1.38,1.66s-1.33.73-2.19.93c-.86.19-1.83.29-2.91.29h-1.71v6.18h-2.16v-16.43c.61-.16,1.29-.27,2.03-.33.75-.06,1.43-.08,2.06-.08h0ZM249.61,169.03c-.92,0-1.62.02-2.11.07v6.54h1.62c.74,0,1.41-.05,2-.16s1.09-.28,1.5-.53.72-.59.94-1.02c.22-.43.33-.99.33-1.66s-.11-1.17-.34-1.59-.54-.75-.93-1-.85-.42-1.37-.52c-.52-.1-1.07-.14-1.65-.14h0Z"></path><path class="cls-7" d="M268.04,183.83c-.25-.72-.49-1.43-.71-2.13-.22-.7-.45-1.41-.69-2.13h-6.98l-1.4,4.26h-2.25c.59-1.76,1.15-3.4,1.67-4.9s1.03-2.92,1.52-4.27c.5-1.35.99-2.63,1.48-3.86.49-1.23,1-2.44,1.53-3.64h1.98c.53,1.2,1.04,2.42,1.53,3.64.49,1.23.98,2.51,1.48,3.86s1,2.77,1.52,4.27,1.07,3.13,1.67,4.9h-2.36,0ZM266.02,177.65c-.47-1.4-.94-2.75-1.41-4.05-.47-1.31-.95-2.56-1.46-3.77-.52,1.2-1.01,2.46-1.48,3.77s-.93,2.66-1.39,4.05h5.74Z"></path><path class="cls-7" d="M280.02,176.85c.24.32.54.74.9,1.26.36.52.74,1.1,1.12,1.73.39.63.77,1.3,1.14,1.99.38.69.7,1.36.97,2h-2.36c-.3-.61-.62-1.23-.97-1.85-.35-.63-.7-1.22-1.06-1.79-.36-.57-.71-1.1-1.06-1.6s-.66-.93-.94-1.3c-.19.02-.39.02-.59.02h-2.54v6.52h-2.16v-16.43c.61-.16,1.29-.27,2.03-.33.75-.06,1.43-.08,2.06-.08,2.16,0,3.81.44,4.95,1.32,1.13.88,1.7,2.2,1.7,3.95,0,1.11-.27,2.05-.81,2.84s-1.34,1.37-2.39,1.76h0ZM276.75,169.03c-.92,0-1.62.02-2.11.07v6.28h1.53c.74,0,1.41-.04,2-.12s1.09-.23,1.5-.46c.41-.22.72-.54.94-.95s.33-.95.33-1.62c0-.62-.11-1.15-.33-1.56-.22-.42-.52-.75-.9-.99s-.82-.41-1.33-.51c-.51-.1-1.06-.14-1.63-.14h0Z"></path><path class="cls-7" d="M296.76,167.16v2.02h-4.85v14.65h-2.16v-14.65h-4.85v-2.02h11.86Z"></path><path class="cls-7" d="M309.58,183.83c-.33-.59-.7-1.26-1.12-2-.42-.74-.88-1.5-1.37-2.3-.49-.79-1-1.6-1.52-2.42-.53-.82-1.05-1.61-1.57-2.37s-1.02-1.48-1.51-2.15c-.49-.67-.94-1.27-1.36-1.78v13.02h-2.11v-16.67h1.71c.7.8,1.44,1.74,2.23,2.8.79,1.07,1.58,2.17,2.36,3.3s1.51,2.24,2.2,3.33,1.27,2.06,1.74,2.91v-12.34h2.11v16.67h-1.8,0Z"></path><path class="cls-7" d="M315.21,183.83v-16.67h9.4v2h-7.25v4.96h6.45v1.95h-6.45v5.77h7.8v2h-9.96.01Z"></path><path class="cls-7" d="M335.43,176.85c.24.32.54.74.9,1.26.36.52.74,1.1,1.12,1.73.39.63.77,1.3,1.14,1.99.38.69.7,1.36.97,2h-2.36c-.3-.61-.62-1.23-.97-1.85-.35-.63-.7-1.22-1.06-1.79-.36-.57-.71-1.1-1.06-1.6s-.66-.93-.94-1.3c-.19.02-.39.02-.59.02h-2.54v6.52h-2.16v-16.43c.61-.16,1.29-.27,2.03-.33.75-.06,1.43-.08,2.06-.08,2.16,0,3.81.44,4.95,1.32,1.13.88,1.7,2.2,1.7,3.95,0,1.11-.27,2.05-.81,2.84s-1.34,1.37-2.39,1.76h0ZM332.17,169.03c-.92,0-1.62.02-2.11.07v6.28h1.53c.74,0,1.41-.04,2-.12s1.09-.23,1.5-.46c.41-.22.72-.54.94-.95s.33-.95.33-1.62c0-.62-.11-1.15-.33-1.56-.22-.42-.52-.75-.9-.99s-.82-.41-1.33-.51c-.51-.1-1.06-.14-1.63-.14h0Z"></path><path class="cls-7" d="M347.02,167.16h2.16v16.67h-2.16v-16.67Z"></path><path class="cls-7" d="M363.55,183.83c-.33-.59-.7-1.26-1.12-2-.42-.74-.88-1.5-1.37-2.3-.49-.79-1-1.6-1.52-2.42-.53-.82-1.05-1.61-1.57-2.37s-1.02-1.48-1.51-2.15c-.49-.67-.94-1.27-1.36-1.78v13.02h-2.11v-16.67h1.71c.7.8,1.44,1.74,2.23,2.8.79,1.07,1.58,2.17,2.36,3.3s1.51,2.24,2.2,3.33,1.27,2.06,1.74,2.91v-12.34h2.11v16.67h-1.8,0Z"></path><path class="cls-7" d="M376.2,175.5c0,2.05.27,3.95.82,5.7.55,1.75,1.36,3.37,2.42,4.86l-1.47,1.08c-1.16-1.52-2.09-3.28-2.79-5.26s-1.06-4.11-1.06-6.39.35-4.41,1.06-6.39c.7-1.98,1.63-3.73,2.79-5.26l1.47,1.08c-1.07,1.49-1.88,3.11-2.42,4.86-.55,1.75-.82,3.65-.82,5.7v.02h0Z"></path><path class="cls-7" d="M385.09,182.17c2.25,0,3.38-.83,3.38-2.5,0-.51-.1-.95-.3-1.31-.2-.36-.47-.67-.81-.94-.34-.26-.73-.49-1.17-.69-.44-.19-.9-.39-1.39-.58-.56-.21-1.1-.44-1.6-.71s-.94-.58-1.31-.94-.66-.79-.88-1.29c-.21-.5-.32-1.1-.32-1.8,0-1.46.46-2.6,1.38-3.42s2.19-1.23,3.8-1.23c.93,0,1.78.11,2.54.32.76.22,1.32.45,1.68.71l-.69,1.9c-.31-.21-.77-.41-1.39-.61-.62-.2-1.33-.3-2.14-.3-.42,0-.8.05-1.16.14-.36.1-.67.24-.93.43s-.48.44-.63.73c-.16.3-.23.65-.23,1.05,0,.45.08.83.25,1.13.16.3.39.57.69.81s.64.45,1.03.64c.39.19.83.38,1.3.58.67.29,1.28.58,1.83.87.56.29,1.04.63,1.45,1.04.41.4.72.88.94,1.43.22.55.33,1.22.33,2.01,0,1.46-.49,2.58-1.48,3.37-.99.79-2.38,1.18-4.17,1.18-.61,0-1.17-.04-1.68-.13-.51-.09-.97-.19-1.37-.31s-.75-.25-1.03-.38c-.29-.14-.51-.25-.68-.35l.64-1.92c.34.21.86.44,1.56.7s1.55.38,2.56.38h0Z"></path><path class="cls-7" d="M397.43,166.99c2.16,0,3.83.45,4.99,1.34s1.75,2.22,1.75,3.98c0,.96-.16,1.79-.48,2.47-.32.68-.78,1.24-1.38,1.66s-1.33.73-2.19.93c-.86.19-1.83.29-2.91.29h-1.71v6.18h-2.16v-16.43c.61-.16,1.29-.27,2.03-.33.75-.06,1.43-.08,2.06-.08h0ZM397.61,169.03c-.92,0-1.62.02-2.11.07v6.54h1.62c.74,0,1.41-.05,2-.16s1.09-.28,1.5-.53.72-.59.94-1.02c.22-.43.33-.99.33-1.66s-.11-1.17-.34-1.59-.54-.75-.93-1c-.39-.25-.85-.42-1.37-.52s-1.07-.14-1.65-.14h0Z"></path><path class="cls-7" d="M406.23,175.48c0-1.43.2-2.69.59-3.78.39-1.09.93-2,1.6-2.73s1.46-1.28,2.36-1.65,1.85-.55,2.86-.55,1.93.18,2.81.55,1.66.92,2.32,1.65,1.2,1.64,1.59,2.73.59,2.35.59,3.78-.2,2.69-.59,3.78-.92,2-1.59,2.73c-.67.73-1.44,1.28-2.32,1.65s-1.82.55-2.81.55-1.96-.18-2.86-.55-1.68-.92-2.36-1.65c-.67-.73-1.21-1.64-1.6-2.73s-.59-2.35-.59-3.78ZM408.5,175.48c0,1.01.12,1.93.36,2.76s.57,1.53,1.01,2.1c.44.58.97,1.02,1.6,1.34s1.34.47,2.12.47,1.49-.16,2.11-.47,1.15-.76,1.59-1.34.77-1.28,1.01-2.1.36-1.75.36-2.76-.12-1.93-.36-2.75c-.24-.83-.57-1.53-1.01-2.1-.44-.58-.97-1.02-1.59-1.34s-1.33-.47-2.11-.47-1.49.16-2.12.47-1.16.76-1.6,1.34-.77,1.28-1.01,2.1c-.24.83-.36,1.75-.36,2.75Z"></path><path class="cls-7" d="M424.15,183.83v-16.67h9.4v2h-7.25v4.96h6.45v1.95h-6.45v5.77h7.8v2h-9.96.01Z"></path><path class="cls-7" d="M449.49,175.48c0,1.44-.21,2.7-.62,3.77-.42,1.07-1,1.95-1.76,2.65s-1.66,1.22-2.71,1.56c-1.05.35-2.21.52-3.47.52-.62,0-1.31-.03-2.06-.08-.75-.06-1.43-.17-2.03-.33v-16.17c.61-.16,1.29-.27,2.03-.33.75-.06,1.43-.08,2.06-.08,1.26,0,2.42.17,3.47.52s1.96.87,2.71,1.56c.76.7,1.34,1.58,1.76,2.65.42,1.07.62,2.32.62,3.76h0ZM441.11,181.93c2.05,0,3.57-.57,4.58-1.7s1.51-2.71,1.51-4.75-.5-3.62-1.51-4.75-2.53-1.7-4.58-1.7c-.61,0-1.08,0-1.41.02-.33.02-.57.03-.7.05v12.75c.13.02.37.03.7.05.33.02.8.02,1.41.02h0Z"></path><path class="cls-7" d="M453.73,175.5c0-2.05-.27-3.95-.82-5.7s-1.36-3.37-2.42-4.86l1.47-1.08c1.16,1.52,2.09,3.28,2.79,5.26s1.06,4.11,1.06,6.39-.35,4.41-1.06,6.39c-.7,1.98-1.63,3.73-2.79,5.26l-1.47-1.08c1.07-1.49,1.88-3.11,2.42-4.86.55-1.75.82-3.65.82-5.7v-.02h0Z"></path><path class="cls-7" d="M470.85,167.16c-.46.54-.98,1.15-1.56,1.82s-1.18,1.35-1.81,2.04c-.63.7-1.26,1.38-1.88,2.06-.62.67-1.21,1.3-1.75,1.88.64.48,1.31,1.08,2.02,1.78.71.71,1.41,1.46,2.09,2.26s1.32,1.62,1.92,2.45,1.1,1.63,1.5,2.38h-2.53c-.45-.75-.96-1.51-1.53-2.27s-1.19-1.49-1.83-2.19c-.64-.7-1.3-1.34-1.96-1.94-.66-.59-1.3-1.1-1.92-1.52v7.92h-2.16v-16.67h2.16v7.36c.52-.53,1.09-1.13,1.71-1.79.62-.67,1.24-1.33,1.84-2.01s1.18-1.32,1.72-1.94,1-1.16,1.37-1.62h2.6Z"></path><path class="cls-7" d="M482.69,181.81v2.02h-9.27v-16.67h2.16v14.65h7.11Z"></path><path class="cls-7" d="M490.3,184.19c-1.01,0-1.88-.17-2.62-.51s-1.35-.8-1.82-1.38-.83-1.28-1.06-2.08-.34-1.67-.34-2.6v-10.47h2.16v10.2c0,1.67.34,2.88,1.02,3.63s1.57,1.13,2.67,1.13c.55,0,1.05-.09,1.5-.28.45-.18.84-.47,1.17-.85.33-.39.58-.88.76-1.48s.27-1.32.27-2.15v-10.2h2.16v10.47c0,.93-.11,1.8-.34,2.6s-.59,1.5-1.07,2.08c-.48.59-1.09,1.05-1.82,1.38-.73.34-1.6.51-2.61.51h-.03Z"></path><path class="cls-7" d="M503.43,182.17c2.25,0,3.38-.83,3.38-2.5,0-.51-.1-.95-.3-1.31-.2-.36-.47-.67-.81-.94s-.73-.49-1.17-.69c-.44-.19-.9-.39-1.39-.58-.56-.21-1.1-.44-1.6-.71s-.94-.58-1.31-.94-.66-.79-.88-1.29c-.21-.5-.32-1.1-.32-1.8,0-1.46.46-2.6,1.38-3.42.92-.82,2.19-1.23,3.8-1.23.93,0,1.78.11,2.54.32.76.22,1.32.45,1.68.71l-.69,1.9c-.31-.21-.77-.41-1.39-.61-.62-.2-1.33-.3-2.14-.3-.42,0-.8.05-1.16.14-.36.1-.67.24-.93.43s-.48.44-.63.73c-.16.3-.23.65-.23,1.05,0,.45.08.83.25,1.13s.39.57.69.81c.3.23.64.45,1.03.64s.83.38,1.3.58c.67.29,1.28.58,1.83.87.56.29,1.04.63,1.45,1.04.41.4.72.88.94,1.43.22.55.33,1.22.33,2.01,0,1.46-.49,2.58-1.48,3.37-.99.79-2.38,1.18-4.17,1.18-.61,0-1.17-.04-1.68-.13-.51-.09-.97-.19-1.37-.31s-.75-.25-1.03-.38c-.29-.14-.51-.25-.68-.35l.64-1.92c.34.21.86.44,1.56.7s1.55.38,2.56.38h0Z"></path><path class="cls-7" d="M515.26,182.17c2.25,0,3.38-.83,3.38-2.5,0-.51-.1-.95-.3-1.31s-.47-.67-.81-.94-.73-.49-1.17-.69c-.44-.19-.9-.39-1.39-.58-.56-.21-1.1-.44-1.6-.71s-.94-.58-1.31-.94-.66-.79-.88-1.29c-.21-.5-.32-1.1-.32-1.8,0-1.46.46-2.6,1.38-3.42.92-.82,2.19-1.23,3.8-1.23.93,0,1.78.11,2.54.32.76.22,1.32.45,1.68.71l-.69,1.9c-.31-.21-.77-.41-1.39-.61s-1.33-.3-2.14-.3c-.42,0-.8.05-1.16.14-.36.1-.67.24-.93.43s-.48.44-.63.73c-.16.3-.23.65-.23,1.05,0,.45.08.83.25,1.13s.39.57.69.81c.3.23.64.45,1.03.64s.83.38,1.3.58c.67.29,1.28.58,1.83.87.56.29,1.04.63,1.45,1.04.41.4.72.88.94,1.43.22.55.33,1.22.33,2.01,0,1.46-.49,2.58-1.48,3.37s-2.38,1.18-4.17,1.18c-.61,0-1.17-.04-1.68-.13-.51-.09-.97-.19-1.37-.31-.4-.12-.75-.25-1.03-.38-.29-.14-.51-.25-.68-.35l.64-1.92c.34.21.86.44,1.56.7s1.55.38,2.56.38h0Z"></path><path class="cls-7" d="M523.51,183.83v-16.67h9.4v2h-7.25v4.96h6.45v1.95h-6.45v5.77h7.8v2h-9.96.01Z"></path><path class="cls-7" d="M546.76,183.83c-.33-.59-.7-1.26-1.12-2s-.88-1.5-1.37-2.3-1-1.6-1.52-2.42c-.53-.82-1.05-1.61-1.57-2.37s-1.02-1.48-1.51-2.15-.94-1.27-1.36-1.78v13.02h-2.11v-16.67h1.71c.7.8,1.44,1.74,2.23,2.8.79,1.07,1.58,2.17,2.36,3.3.78,1.13,1.51,2.24,2.2,3.33s1.27,2.06,1.75,2.91v-12.34h2.11v16.67h-1.8Z"></path><path class="cls-7" d="M557.51,183.83v-16.67h9.4v2h-7.25v4.96h6.45v1.95h-6.45v5.77h7.8v2h-9.96.01Z"></path><path class="cls-7" d="M580.76,183.83c-.33-.59-.7-1.26-1.12-2s-.88-1.5-1.37-2.3-1-1.6-1.52-2.42c-.53-.82-1.05-1.61-1.57-2.37s-1.02-1.48-1.51-2.15-.94-1.27-1.36-1.78v13.02h-2.11v-16.67h1.71c.7.8,1.44,1.74,2.23,2.8.79,1.07,1.58,2.17,2.36,3.3.78,1.13,1.51,2.24,2.2,3.33s1.27,2.06,1.75,2.91v-12.34h2.11v16.67h-1.8Z"></path><path class="cls-7" d="M595.61,166.99c2.16,0,3.83.45,4.99,1.34s1.74,2.22,1.74,3.98c0,.96-.16,1.79-.48,2.47s-.78,1.24-1.38,1.66-1.33.73-2.19.93-1.83.29-2.91.29h-1.71v6.18h-2.16v-16.43c.61-.16,1.29-.27,2.03-.33.75-.06,1.43-.08,2.06-.08h0ZM595.79,169.03c-.92,0-1.62.02-2.11.07v6.54h1.62c.74,0,1.41-.05,2-.16.59-.1,1.09-.28,1.5-.53s.72-.59.94-1.02c.22-.43.33-.99.33-1.66s-.12-1.17-.34-1.59c-.23-.42-.54-.75-.93-1s-.85-.42-1.37-.52-1.07-.14-1.64-.14h0Z"></path><path class="cls-7" d="M612.57,176.85c.24.32.54.74.9,1.26.36.52.74,1.1,1.12,1.73.38.63.77,1.3,1.14,1.99s.7,1.36.97,2h-2.36c-.3-.61-.62-1.23-.97-1.85-.35-.63-.7-1.22-1.06-1.79-.36-.57-.71-1.1-1.06-1.6s-.66-.93-.94-1.3c-.19.02-.39.02-.59.02h-2.55v6.52h-2.16v-16.43c.61-.16,1.29-.27,2.03-.33.75-.06,1.43-.08,2.06-.08,2.16,0,3.81.44,4.95,1.32,1.13.88,1.7,2.2,1.7,3.95,0,1.11-.27,2.05-.81,2.84s-1.34,1.37-2.39,1.76h.02,0ZM609.31,169.03c-.92,0-1.62.02-2.11.07v6.28h1.53c.74,0,1.41-.04,2-.12s1.09-.23,1.5-.46c.41-.22.72-.54.94-.95.22-.41.33-.95.33-1.62,0-.62-.11-1.15-.33-1.56-.22-.42-.52-.75-.9-.99s-.82-.41-1.33-.51c-.51-.1-1.06-.14-1.63-.14h0Z"></path><path class="cls-7" d="M618.15,175.48c0-1.43.2-2.69.59-3.78s.93-2,1.6-2.73,1.46-1.28,2.36-1.65,1.85-.55,2.86-.55,1.93.18,2.81.55,1.66.92,2.32,1.65,1.2,1.64,1.59,2.73.59,2.35.59,3.78-.2,2.69-.59,3.78-.92,2-1.59,2.73c-.67.73-1.44,1.28-2.32,1.65s-1.82.55-2.81.55-1.96-.18-2.86-.55-1.68-.92-2.36-1.65c-.67-.73-1.21-1.64-1.6-2.73s-.59-2.35-.59-3.78ZM620.42,175.48c0,1.01.12,1.93.36,2.76s.57,1.53,1.01,2.1c.44.58.97,1.02,1.6,1.34.63.31,1.34.47,2.12.47s1.49-.16,2.11-.47,1.15-.76,1.59-1.34.77-1.28,1.01-2.1c.24-.83.36-1.75.36-2.76s-.12-1.93-.36-2.75c-.24-.83-.58-1.53-1.01-2.1-.44-.58-.97-1.02-1.59-1.34-.62-.31-1.33-.47-2.11-.47s-1.49.16-2.12.47-1.16.76-1.6,1.34-.77,1.28-1.01,2.1c-.24.83-.36,1.75-.36,2.75Z"></path><path class="cls-7" d="M642.92,178.46c0,.8-.08,1.55-.23,2.24s-.43,1.3-.82,1.82-.92.93-1.58,1.23c-.66.3-1.49.45-2.48.45-.5,0-.97-.04-1.39-.13-.42-.09-.8-.2-1.14-.34s-.64-.28-.89-.43-.45-.3-.6-.45l.84-1.85c.31.24.71.49,1.21.76.5.26,1.11.4,1.86.4,1.07,0,1.84-.29,2.33-.88.49-.58.73-1.59.73-3.02v-11.09h2.16v11.31-.02h0Z"></path><path class="cls-7" d="M646.63,183.83v-16.67h9.4v2h-7.25v4.96h6.45v1.95h-6.45v5.77h7.8v2h-9.96.01Z"></path><path class="cls-7" d="M665.32,184.19c-1.08,0-2.07-.19-2.96-.58-.89-.38-1.65-.95-2.29-1.68-.64-.74-1.13-1.65-1.48-2.73s-.52-2.32-.52-3.72.2-2.63.59-3.72.92-1.99,1.59-2.73c.67-.74,1.44-1.3,2.33-1.68.89-.38,1.84-.58,2.84-.58.64,0,1.21.05,1.72.14.51.1.96.21,1.33.34.38.13.69.26.92.38.24.13.4.23.49.29l-.62,1.92c-.13-.1-.33-.2-.58-.31s-.54-.22-.86-.34c-.32-.11-.67-.21-1.04-.28-.38-.07-.76-.11-1.14-.11-.82,0-1.55.15-2.2.46-.65.3-1.21.75-1.67,1.32-.46.58-.81,1.28-1.06,2.11-.24.83-.37,1.75-.37,2.78s.11,1.9.32,2.72.54,1.52.97,2.1c.43.59.97,1.04,1.61,1.36s1.4.48,2.26.48c.99,0,1.82-.11,2.47-.34.65-.22,1.14-.42,1.47-.6l.56,1.92c-.1.08-.29.18-.56.3-.27.12-.6.24-1,.35s-.87.21-1.4.29-1.11.12-1.73.12v.02h.01Z"></path><path class="cls-7" d="M683.15,167.16v2.02h-4.85v14.65h-2.16v-14.65h-4.85v-2.02h11.86,0Z"></path><path class="cls-7" d="M685.42,183.83v-16.67h9.4v2h-7.25v4.96h6.45v1.95h-6.45v5.77h7.8v2h-9.96.01Z"></path><path class="cls-7" d="M708.67,183.83c-.33-.59-.7-1.26-1.12-2s-.88-1.5-1.37-2.3-1-1.6-1.52-2.42c-.53-.82-1.05-1.61-1.57-2.37s-1.02-1.48-1.51-2.15-.94-1.27-1.36-1.78v13.02h-2.11v-16.67h1.71c.7.8,1.44,1.74,2.23,2.8.79,1.07,1.58,2.17,2.36,3.3.78,1.13,1.51,2.24,2.2,3.33s1.27,2.06,1.75,2.91v-12.34h2.11v16.67h-1.8Z"></path></g></g></svg>