<?xml version="1.0" encoding="utf-8"?>
<svg xmlns="http://www.w3.org/2000/svg" fill="none" viewBox="0 0 22 17">
  <path fill="#EA4335" d="m17.051 1.523-5.987 4.672L4.94 1.523v.001l.008.007v6.542l6.047 4.774 6.056-4.59V1.524Z"/>
  <path fill="#FBBC05" d="m18.623.386-1.572 1.137v6.735L22 4.459V2.171s-.6-3.268-3.375-1.785Z"/>
  <path fill="#34A853" d="M17.051 8.258v8.735h3.792s1.08-.112 1.157-1.342V4.46l-4.95 3.798Z"/>
  <path fill="#C5221F" d="M4.948 17V8.073l-.008-.006L4.948 17ZM4.94 1.524 3.376.394C.602-1.09 0 2.177 0 2.177v2.288l4.94 3.602V1.524Z"/>
  <path fill="#C5221F" d="M4.94 1.524v6.543l.008.006V1.53l-.008-.006Z"/>
  <path fill="#4285F4" d="M0 4.467v11.192A1.35 1.35 0 0 0 1.157 17h3.792L4.94 8.067 0 4.467Z"/>
</svg>